<?xml version="1.0" encoding="utf-8"?>
<svg version="1.1" width="1024" height="1024" xmlns="http://www.w3.org/2000/svg">
  <path d="M 427.4 100.024 C 429.289 100.012 429.289 100.012 431.216 100 C 464.243 100.068 501.68 111.284 525.087 135.274 C 531.998 142.357 537.439 154.455 537.394 168.431 C 537.328 188.605 528.835 201.678 521.525 209.274 C 520.957 209.864 520.429 210.492 519.865 211.119 C 500.759 232.064 474.255 247.081 446.525 253.274 C 445.686 253.466 444.848 253.657 443.984 253.855 C 427.406 257.54 410.209 259.56 393.525 255.274 C 393.796 272.678 398.051 286.716 410.4 299.461 C 416.999 305.835 424.098 310.764 431.868 315.61 C 433.467 316.611 435.055 317.632 436.618 318.688 C 441.122 321.697 445.629 323.494 450.743 325.25 C 454.265 326.546 457.522 328.196 460.853 329.915 C 467.335 333.213 473.941 336.394 480.775 338.899 C 488.621 341.776 495.998 345.502 503.44 349.278 C 507.492 351.316 511.555 353.162 515.775 354.836 C 520.871 356.902 525.494 359.422 530.196 362.266 C 532.65 363.746 535.11 365.184 537.603 366.594 C 546.214 371.496 554.105 376.745 561.835 382.951 C 563.634 384.36 565.469 385.705 567.321 387.043 C 581.891 397.594 594.667 409.767 606.525 423.274 C 607.05 423.847 607.576 424.42 608.117 425.01 C 625.431 444.16 639.023 468.947 647.525 493.274 C 647.774 493.979 648.023 494.683 648.28 495.41 C 654.556 513.361 658.622 532.166 658.728 551.235 C 658.733 552.065 658.739 552.895 658.745 553.75 C 658.754 555.5 658.761 557.249 658.765 558.999 C 658.774 561.608 658.805 564.216 658.837 566.825 C 658.912 578.596 657.709 589.72 655.525 601.274 C 655.289 602.614 655.054 603.954 654.821 605.294 C 653.223 613.98 650.834 622.201 647.9 630.524 C 647.681 631.149 647.462 631.774 647.237 632.417 C 636.646 662.557 619.822 687.925 598.805 711.81 C 597.689 713.086 596.591 714.38 595.497 715.676 C 592.164 719.615 588.658 723.058 584.716 726.387 C 583.19 727.701 581.7 729.056 580.239 730.442 C 554.959 754.394 521.8 773.114 488.65 783.589 C 487.053 784.104 485.463 784.642 483.877 785.192 C 476.126 787.864 468.313 789.945 460.337 791.836 C 459.066 792.14 457.794 792.444 456.484 792.757 C 388.665 808.741 317.824 796.353 258.451 760.004 C 242.805 750.15 228.167 738.735 214.525 726.274 C 213.994 725.79 213.463 725.306 212.916 724.807 C 204.564 717.085 197.674 708.433 190.976 699.259 C 189.72 697.542 188.443 695.84 187.161 694.141 C 155.073 650.144 137.096 590.608 145.107 536.414 C 146.211 529.604 147.54 522.837 148.962 516.086 C 149.155 515.166 149.348 514.246 149.547 513.299 C 150.819 507.58 152.553 502.189 154.621 496.71 C 155.643 493.954 156.443 491.172 157.212 488.336 C 166.294 458.592 184.835 429.328 206.525 407.274 C 207.683 405.951 208.83 404.619 209.962 403.274 C 220.313 391.362 231.992 381.181 244.775 371.961 C 245.341 371.553 245.908 371.144 246.491 370.722 C 255.967 364.005 255.967 364.005 261.15 362.524 C 264.616 363.619 265.404 365.83 267.138 368.915 C 269.536 372.995 272.578 376.58 275.525 380.274 C 276.164 381.14 276.803 382.006 277.462 382.899 C 279.86 385.66 282.485 387.956 285.263 390.329 C 287.662 392.392 289.999 394.515 292.337 396.649 C 313.295 415.527 337.406 432.609 362.759 445.125 C 364.525 446.274 364.525 446.274 365.525 449.274 C 364.301 449.735 363.078 450.197 361.818 450.672 C 327.648 463.792 299.377 481.9 283.286 515.969 C 274.135 536.951 273.386 565.882 280.419 587.516 C 293.241 619.504 315.445 641.082 346.525 655.274 C 347.404 655.683 348.283 656.091 349.189 656.512 C 356.665 659.75 364.593 661.537 372.525 663.274 C 373.205 663.428 373.885 663.582 374.586 663.74 C 393.749 667.951 414.474 668.143 433.525 663.274 C 434.315 663.075 435.106 662.877 435.921 662.672 C 447.906 659.574 458.739 655.323 469.525 649.274 C 470.481 648.75 470.481 648.75 471.457 648.215 C 496.672 634.316 511.427 614.746 519.525 587.274 C 519.896 586.031 520.267 584.789 520.65 583.508 C 527.154 559.464 521.191 533.427 509.306 512.192 C 492.361 483.454 464.829 468.78 435.525 455.274 C 416.564 446.514 397.702 437.49 379.068 428.055 C 376.578 426.804 374.086 425.575 371.575 424.368 C 361.786 419.632 352.615 414.238 343.525 408.274 C 342.849 407.837 342.173 407.4 341.476 406.949 C 332.732 401.273 324.849 395.206 317.341 387.969 C 315.107 385.831 312.852 383.852 310.462 381.899 C 281.943 356.967 261.954 315.675 258.525 278.274 C 257.601 262.806 257.855 247.377 261.525 232.274 C 261.774 231.23 261.774 231.23 262.028 230.166 C 267.915 206.387 279.99 185.07 295.525 166.274 C 296.011 165.681 296.498 165.087 296.999 164.476 C 307.29 151.985 307.29 151.985 313.38 147.024 C 315.029 145.678 316.627 144.27 318.2 142.836 C 331.756 130.588 348.061 121.983 364.525 114.274 C 365.623 113.743 366.721 113.212 367.853 112.665 C 386.555 104.067 406.892 99.899 427.4 100.024 Z" fill="#62BB2B"/>
  <path d="M 686.163 422.862 C 687.249 423.051 688.335 423.24 689.454 423.435 C 690.493 423.598 691.533 423.761 692.604 423.929 C 695.816 424.461 699.008 425.059 702.204 425.685 C 703.337 425.906 704.47 426.127 705.637 426.355 C 737.702 432.808 737.702 432.808 743.454 441.435 C 743.789 446.344 743.139 450.51 741.891 455.247 C 741.72 455.904 741.548 456.56 741.372 457.237 C 740.975 458.748 740.574 460.258 740.169 461.768 C 739.337 464.87 738.519 467.977 737.7 471.083 C 737.077 473.43 736.453 475.776 735.829 478.122 C 735.377 479.824 735.377 479.824 734.916 481.561 C 734.482 483.175 734.482 483.175 734.039 484.821 C 733.653 486.263 733.653 486.263 733.26 487.734 C 732.47 490.379 731.52 492.891 730.454 495.435 C 731.271 495.646 732.088 495.858 732.93 496.075 C 737.437 497.814 740.945 500.351 744.829 503.185 C 745.545 503.698 746.262 504.211 747 504.739 C 749.161 506.292 751.309 507.861 753.454 509.435 C 754.208 509.982 754.962 510.529 755.74 511.093 C 756.463 511.623 757.185 512.154 757.93 512.7 C 758.583 513.178 759.236 513.655 759.909 514.147 C 761.454 515.435 761.454 515.435 762.454 517.435 C 766.416 516.847 769.229 515.628 772.664 513.591 C 773.655 513.008 774.646 512.425 775.666 511.824 C 776.71 511.2 777.753 510.577 778.829 509.935 C 779.9 509.306 780.972 508.676 782.077 508.028 C 786.796 505.25 791.487 502.445 796.086 499.47 C 797.085 498.834 797.085 498.834 798.104 498.185 C 799.826 497.079 801.531 495.947 803.235 494.814 C 807.334 493.058 810.248 492.95 814.454 494.435 C 817.976 497.282 820.347 500.511 822.766 504.31 C 826.173 509.553 829.72 514.677 833.325 519.787 C 844.192 535.223 844.192 535.223 848.454 542.372 C 849.052 543.371 849.65 544.37 850.266 545.4 C 851.751 549.195 852.388 552.463 851.454 556.435 C 848.188 562.1 842.576 565.898 837.391 569.685 C 831.208 574.296 825.216 579.043 819.389 584.096 C 815.631 587.346 815.631 587.346 813.454 588.435 C 814.692 592.321 816.128 595.981 817.829 599.685 C 820.072 604.991 821.524 610.267 822.766 615.872 C 822.937 616.641 823.109 617.411 823.285 618.203 C 824.086 622.006 824.663 625.524 824.454 629.435 C 825.398 629.388 826.343 629.342 827.317 629.294 C 832.26 629.299 836.863 630.517 841.641 631.685 C 847.453 633.07 853.253 634.431 859.129 635.517 C 860.026 635.683 860.922 635.85 861.845 636.022 C 863.539 636.33 865.234 636.629 866.931 636.914 C 871.926 637.835 875.408 639.173 879.454 642.435 C 881.685 645.781 881.71 646.881 881.719 650.79 C 881.723 651.876 881.727 652.962 881.731 654.081 C 881.722 655.249 881.713 656.418 881.704 657.622 C 881.696 659.426 881.696 659.426 881.687 661.265 C 881.565 673.055 880.708 684.717 879.454 696.435 C 879.384 697.165 879.315 697.896 879.243 698.648 C 879.067 700.475 878.856 702.299 878.641 704.122 C 878.477 705.52 878.477 705.52 878.309 706.946 C 877.101 710.459 875.284 712.052 872.454 714.435 C 869.275 715.262 869.275 715.262 865.719 715.544 C 864.422 715.659 863.126 715.774 861.789 715.892 C 860.428 715.99 859.066 716.088 857.704 716.185 C 856.357 716.296 855.011 716.409 853.664 716.525 C 851.078 716.742 848.491 716.952 845.903 717.152 C 843.061 717.385 840.241 717.67 837.411 718.009 C 833.862 718.391 830.456 718.538 826.891 718.497 C 825.859 718.488 824.826 718.479 823.762 718.47 C 822.619 718.452 822.619 718.452 821.454 718.435 C 821.44 719.293 821.44 719.293 821.426 720.17 C 821.003 728.015 818.3 734.249 815.016 741.31 C 814.513 742.423 814.009 743.537 813.491 744.685 C 811.547 748.97 809.582 753.237 807.454 757.435 C 808.184 758.067 808.184 758.067 808.929 758.711 C 813.797 762.944 818.566 767.266 823.266 771.685 C 823.955 772.331 824.643 772.978 825.352 773.645 C 844.041 791.267 844.041 791.267 844.954 796.06 C 843.401 806.541 832.272 815.781 825.454 823.435 C 824.643 824.347 823.832 825.26 822.997 826.2 C 820.828 828.623 818.643 831.03 816.454 833.435 C 815.49 834.504 814.526 835.573 813.563 836.642 C 812.568 837.74 811.574 838.837 810.579 839.935 C 810.114 840.452 809.649 840.969 809.17 841.502 C 805.808 845.193 803.239 847.737 798.141 848.122 C 791.019 847.978 785.941 843.658 780.346 839.727 C 777.156 837.549 773.839 835.59 770.516 833.622 C 769.914 833.262 769.312 832.902 768.691 832.531 C 765.695 830.743 762.682 829.001 759.637 827.298 C 756.454 825.435 756.454 825.435 754.454 823.435 C 750.526 823.701 748.059 826.117 745.079 828.497 C 736.958 834.803 728.289 840.278 718.454 843.435 C 719.394 847.63 720.336 851.825 721.279 856.02 C 721.599 857.442 721.918 858.863 722.237 860.285 C 722.699 862.351 723.164 864.416 723.629 866.482 C 723.782 867.16 723.935 867.839 724.092 868.538 C 725.043 872.728 726.073 876.89 727.153 881.048 C 728.156 885.022 728.908 888.752 728.954 892.872 C 729 894.293 729 894.293 729.047 895.743 C 728.215 899.517 726.622 901.395 723.454 903.435 C 719.46 905.2 715.357 906.537 711.204 907.872 C 708.857 908.654 706.511 909.437 704.164 910.22 C 703.019 910.596 701.874 910.973 700.695 911.361 C 696.386 912.788 692.105 914.288 687.829 915.81 C 687.186 916.036 686.544 916.262 685.882 916.495 C 683.366 917.383 680.855 918.279 678.367 919.244 C 677.67 919.515 676.973 919.785 676.254 920.064 C 675.313 920.436 675.313 920.436 674.353 920.816 C 670.748 921.99 668.245 921.994 664.454 921.435 C 660.141 917.109 657.896 912.526 655.579 906.935 C 652.635 900.051 649.479 893.369 645.997 886.743 C 644.128 882.736 642.77 878.65 641.454 874.435 C 640.902 874.495 640.351 874.556 639.783 874.618 C 625.627 876.136 611.686 876.705 597.454 876.435 C 597.361 877 597.268 877.565 597.172 878.148 C 595.815 885.664 593.499 892.724 591.016 899.935 C 590.224 902.257 589.434 904.58 588.645 906.903 C 588.266 908.008 587.887 909.113 587.497 910.251 C 586.288 913.94 585.272 917.661 584.34 921.429 C 583.107 924.218 582.209 925.065 579.454 926.435 C 573.24 927.187 567.065 926.069 560.957 924.974 C 560.084 924.823 559.21 924.673 558.31 924.517 C 555.544 924.038 552.78 923.549 550.016 923.06 C 548.167 922.739 546.317 922.418 544.467 922.099 C 539.459 921.228 534.453 920.352 529.454 919.435 C 528.552 919.275 527.65 919.115 526.72 918.95 C 525.827 918.784 524.933 918.619 524.012 918.448 C 522.795 918.227 522.795 918.227 521.553 918.001 C 518.618 917.21 517.175 915.904 515.454 913.435 C 514.496 910.561 516.557 865.053 516.454 857.435 C 514.912 856.889 514.912 856.889 513.34 856.333 C 500.896 851.852 490.159 846.284 479.454 838.435 C 479.381 839.006 466.54 852.931 464.141 854.747 C 459.438 858.314 455.171 862.301 450.882 866.348 C 446.163 870.786 443.388 873.059 436.899 872.86 C 424.779 870.75 412.2 855.312 403.321 847.083 C 399.752 843.787 396.135 840.546 392.512 837.31 C 391.833 836.691 391.153 836.072 390.454 835.435 C 389.863 834.958 389.273 834.481 388.664 833.989 C 387.454 832.435 387.454 832.435 387.309 830.13 C 387.473 828.858 387.473 828.858 387.641 827.56 C 387.738 826.717 387.834 825.874 387.934 825.005 C 388.48 822.305 389.356 819.956 390.454 817.435 C 391.407 817.421 392.361 817.406 393.344 817.392 C 419.208 816.662 445.59 812.483 470.454 805.435 C 472.179 804.947 472.179 804.947 473.939 804.45 C 490.95 799.568 507.318 793.699 523.454 786.435 C 524.765 785.846 524.765 785.846 526.102 785.246 C 536.553 780.517 546.61 775.328 556.454 769.435 C 556.927 769.821 557.4 770.208 557.887 770.607 C 574.468 783.665 596.869 785.89 617.329 785.935 C 618.479 785.939 618.479 785.939 619.654 785.944 C 633.015 785.941 644.88 784.163 657.454 779.435 C 659.188 778.826 659.188 778.826 660.957 778.204 C 685.956 768.655 709.546 749.958 722.454 726.435 C 722.805 725.805 723.156 725.174 723.518 724.525 C 733.422 706.532 737.859 688.384 737.829 667.81 C 737.828 667.153 737.827 666.496 737.826 665.82 C 737.749 648.267 734.193 634.081 726.454 618.435 C 725.98 617.45 725.507 616.465 725.02 615.45 C 721.092 607.75 715.899 601.096 710.454 594.435 C 709.743 593.545 709.033 592.656 708.301 591.739 C 702.178 584.464 693.691 576.684 684.594 573.403 C 683.888 573.084 683.181 572.764 682.454 572.435 C 681.405 569.475 681.307 566.617 681.243 563.497 C 680.886 550.238 679.857 537.476 677.454 524.435 C 677.256 523.324 677.059 522.213 676.856 521.069 C 673.294 501.29 668.227 483.332 658.387 465.747 C 657.277 462.997 657.524 462.188 658.454 459.435 C 659.17 458.233 659.935 457.059 660.735 455.911 C 664.563 449.974 666.672 443.359 669.059 436.747 C 674.84 421.29 674.84 421.29 686.163 422.862 Z" fill="#1E8DD0"/>
  <path d="M 699.027 145.468 C 700.522 145.462 700.522 145.462 702.048 145.455 C 704.147 145.45 706.245 145.449 708.344 145.453 C 711.548 145.457 714.751 145.433 717.955 145.408 C 720 145.406 722.045 145.405 724.09 145.406 C 725.043 145.397 725.996 145.387 726.978 145.378 C 732.219 145.414 735.984 145.775 740.492 148.769 C 741.646 151.077 741.613 152.377 741.606 154.943 C 741.605 155.804 741.605 156.665 741.605 157.552 C 741.6 158.482 741.595 159.412 741.59 160.371 C 741.588 161.798 741.588 161.798 741.585 163.254 C 741.58 166.301 741.567 169.348 741.555 172.394 C 741.549 174.457 741.545 176.519 741.541 178.582 C 741.53 183.644 741.513 188.707 741.492 193.769 C 742.207 193.886 742.922 194.003 743.659 194.123 C 752.5 195.636 761.648 197.707 768.992 203.144 C 771.3 204.973 771.3 204.973 773.672 204.742 C 777.851 203.3 780.767 200.66 784.117 197.832 C 784.819 197.251 785.521 196.67 786.244 196.071 C 791.454 191.729 796.504 187.233 801.453 182.597 C 804.169 180.162 805.098 179.799 808.805 179.519 C 813.509 179.838 815.757 180.896 818.969 184.363 C 820.124 185.699 821.269 187.043 822.406 188.394 C 824.819 191.141 827.387 193.707 829.992 196.269 C 833.836 200.059 837.493 203.946 840.996 208.054 C 842.365 209.624 843.831 211.109 845.305 212.582 C 848.189 215.466 849.492 216.86 849.492 221.019 C 847.962 226.758 844.404 229.877 840.269 233.968 C 836.706 237.562 833.257 241.256 829.805 244.957 C 828.468 246.388 827.13 247.819 825.793 249.25 C 825.207 249.878 824.621 250.506 824.017 251.153 C 822.862 252.377 821.682 253.579 820.492 254.769 C 821.097 255.459 821.701 256.148 822.324 256.859 C 824.625 259.948 825.855 262.725 827.18 266.332 C 827.804 268.004 827.804 268.004 828.441 269.711 C 829.251 272.068 829.912 274.352 830.492 276.769 C 832.353 276.965 832.353 276.965 834.252 277.165 C 838.872 277.655 843.49 278.167 848.107 278.686 C 850.102 278.907 852.098 279.122 854.095 279.331 C 856.971 279.634 859.845 279.957 862.719 280.285 C 863.606 280.374 864.494 280.462 865.409 280.554 C 870.734 281.186 874.251 282.236 878.492 285.769 C 880.617 288.957 880.746 289.778 880.767 293.437 C 880.776 294.381 880.786 295.326 880.796 296.299 C 880.794 297.827 880.794 297.827 880.793 299.386 C 880.797 300.436 880.801 301.485 880.806 302.566 C 880.812 304.787 880.812 307.008 880.808 309.229 C 880.805 312.624 880.828 316.018 880.853 319.414 C 880.856 321.571 880.856 323.729 880.855 325.886 C 880.864 326.901 880.874 327.916 880.883 328.961 C 880.825 337.876 880.825 337.876 877.492 341.769 C 874.424 343.814 873.195 344.12 869.652 344.515 C 868.68 344.629 867.708 344.743 866.707 344.86 C 865.667 344.974 864.626 345.089 863.555 345.207 C 861.389 345.46 859.224 345.715 857.058 345.972 C 855.965 346.102 854.872 346.231 853.746 346.365 C 848.815 346.977 843.904 347.705 838.992 348.457 C 837.702 348.654 837.702 348.654 836.387 348.855 C 834.421 349.157 832.457 349.463 830.492 349.769 C 830.166 350.782 829.84 351.796 829.504 352.839 C 829.063 354.191 828.621 355.543 828.18 356.894 C 827.966 357.559 827.753 358.224 827.533 358.91 C 826.48 362.117 825.375 364.996 823.824 368.011 C 822.202 370.859 822.202 370.859 822.492 374.769 C 823.881 375.989 825.285 377.196 826.75 378.324 C 828.542 379.811 829.937 381.358 831.43 383.144 C 835.788 388.284 840.621 392.948 845.425 397.665 C 846.064 398.295 846.702 398.925 847.359 399.574 C 848.227 400.424 848.227 400.424 849.113 401.292 C 850.97 403.281 851.469 404.649 851.992 407.332 C 851.217 412.663 847.949 415.783 844.492 419.769 C 843.847 420.546 843.203 421.324 842.539 422.125 C 839.074 426.237 839.074 426.237 837.492 427.769 C 836.832 427.769 820.018 444.58 812.492 447.769 C 804.12 448.699 799.082 443.586 792.867 438.707 C 792.264 438.236 791.661 437.765 791.039 437.279 C 785.769 433.108 780.913 428.587 776.113 423.886 C 773.388 421.685 771.977 420.832 768.492 420.769 C 766.59 421.71 766.59 421.71 764.992 423.207 C 762.848 424.851 761.556 425.75 758.93 426.519 C 755.537 425.475 754.187 423.398 752.117 420.593 C 747.462 415.368 740.97 414.37 734.43 412.832 C 733.336 412.574 732.243 412.316 731.117 412.05 C 714.948 408.371 698.353 405.55 681.742 405.207 C 681.011 405.18 680.279 405.153 679.526 405.125 C 673.867 405.166 669.759 407.059 665.492 410.769 C 663.325 413.793 663.325 413.793 661.992 417.082 C 661.507 418.15 661.023 419.219 660.523 420.32 C 660.183 421.128 659.843 421.936 659.492 422.769 C 652.973 422.017 652.973 422.017 650.43 420.707 C 647.625 419.349 645.559 419.378 642.492 419.769 C 640.579 421.65 640.579 421.65 639.492 423.769 C 635.64 422.272 634.094 420.148 631.805 416.769 C 628.356 411.863 624.642 407.436 620.57 403.039 C 618.834 401.143 617.221 399.212 615.617 397.207 C 610.507 391.164 603.819 386.463 597.492 381.769 C 597.742 379.394 600.539 375.605 602.492 374.769 C 602.25 374.175 602.007 373.581 601.758 372.968 C 600.655 370.241 599.571 367.506 598.492 364.769 C 598.11 363.811 597.729 362.854 597.336 361.867 C 596.794 360.457 596.794 360.457 596.242 359.019 C 595.907 358.158 595.572 357.297 595.226 356.41 C 594.398 353.432 594.366 350.845 594.492 347.769 C 593.835 347.804 593.177 347.839 592.5 347.875 C 585.196 348.082 578.447 347.217 571.298 345.907 C 565.311 344.832 559.498 344.35 553.41 344.175 C 549.132 343.58 546.507 341.784 543.492 338.769 C 542.554 335.946 542.358 333.333 542.331 330.371 C 542.321 329.51 542.312 328.649 542.302 327.761 C 542.298 326.838 542.293 325.915 542.289 324.964 C 542.283 324.008 542.277 323.051 542.272 322.065 C 542.262 320.043 542.256 318.021 542.252 315.998 C 542.242 312.912 542.211 309.827 542.18 306.742 C 542.173 304.774 542.168 302.807 542.164 300.839 C 542.152 299.921 542.139 299.002 542.126 298.055 C 542.144 292.863 542.59 289.262 545.492 284.769 C 549.927 280.75 554.743 280.422 560.484 279.797 C 561.267 279.709 562.05 279.622 562.857 279.532 C 564.513 279.348 566.168 279.166 567.825 278.985 C 570.351 278.708 572.877 278.426 575.402 278.142 C 577.013 277.964 578.623 277.786 580.234 277.609 C 581.363 277.482 581.363 277.482 582.514 277.353 C 586.19 276.956 589.793 276.671 593.492 276.769 C 593.533 275.862 593.575 274.954 593.617 274.019 C 594.284 269.069 596.771 264.978 599.117 260.636 C 600.404 257.952 601.063 255.698 601.492 252.769 C 600.996 252.357 600.499 251.944 599.988 251.519 C 595.747 247.914 591.951 244.192 588.351 239.949 C 585.511 236.619 582.55 233.401 579.605 230.164 C 578.908 229.373 578.211 228.583 577.492 227.769 C 576.338 226.568 576.338 226.568 575.16 225.343 C 573.492 222.769 573.492 222.769 573.515 219.761 C 574.601 216.436 575.851 214.551 578.117 211.894 C 578.918 210.956 579.718 210.017 580.543 209.05 C 584.685 204.391 588.962 199.853 593.262 195.34 C 595.911 192.557 598.449 189.825 600.816 186.793 C 601.369 186.125 608.322 179.794 611.66 179.312 C 616.907 179.938 619.371 182.284 623.242 185.707 C 623.936 186.296 624.63 186.886 625.344 187.493 C 626.744 188.683 628.138 189.878 629.527 191.08 C 632.239 193.412 635.019 195.65 637.805 197.894 C 642.319 201.558 642.319 201.558 643.972 203.574 C 645.487 205.04 645.487 205.04 647.898 204.601 C 650.474 203.775 652.628 202.764 654.992 201.457 C 661.936 197.87 669.613 194.769 677.492 194.769 C 677.487 194.136 677.482 193.504 677.476 192.852 C 677.399 182.094 677.332 171.331 677.805 160.582 C 677.827 159.859 677.849 159.137 677.873 158.393 C 678.099 154.093 678.6 151.031 681.492 147.769 C 687.337 145.568 692.829 145.462 699.027 145.468 Z" fill="#2CA6ED"/>
  <path d="M 411.493 465.853 C 425.574 468.628 429.74 471.823 438.469 476.872 C 440.846 478.219 443.258 479.475 445.688 480.723 C 456.155 486.162 465.138 492.007 473.688 500.13 C 474.181 500.583 474.674 501.037 475.182 501.505 C 490.979 516.047 498.164 533.912 499.938 555.118 C 500.668 573.431 494.983 589.706 482.688 603.13 C 475.342 610.803 466.921 616.061 457.688 621.13 C 456.781 621.629 456.781 621.629 455.857 622.139 C 429.446 636.5 397.58 639.453 368.772 631.185 C 359.863 628.419 351.733 624.822 343.688 620.13 C 342.249 619.306 342.249 619.306 340.782 618.466 C 339.132 617.496 337.497 616.502 335.883 615.473 C 333.705 614.08 333.705 614.08 331.305 613.036 C 328.995 611.909 327.463 610.988 325.688 609.13 C 324.279 601.409 323.576 582.588 332.487 574.529 C 338.106 569.447 407.986 586.738 408.178 585.79 C 408.959 581.938 412.841 570.084 418.091 560.448 C 423.511 550.501 430.309 542.801 431.541 541.033 C 439.901 529.391 405.334 502.249 401.692 483.306 C 400.729 478.296 405.186 463.995 411.493 465.853 Z" fill="#1C8BCD"/>
  <path d="M0 0 C10.9098195 9.47083927 17.27581089 19.61262961 18.42578125 34.16796875 C18.76831546 47.36871017 16.51089415 59.70946089 7.15234375 69.70703125 C6.08886719 70.93873047 6.08886719 70.93873047 5.00390625 72.1953125 C-3.202918 81.15907685 -14.01261861 86.87632218 -26.25830078 87.91064453 C-28.87527276 88.0106594 -31.47884824 88.03617672 -34.09765625 88.01953125 C-35.02425049 88.0138916 -35.95084473 88.00825195 -36.90551758 88.00244141 C-51.67320483 87.74138664 -62.80195322 83.16954363 -73.67578125 73.10546875 C-84.33110695 61.33861627 -87.69037236 49.10985945 -87.25 33.7265625 C-86.40149646 19.69849931 -79.04668863 8.44452131 -69.09765625 -1.16796875 C-48.9797789 -17.52624278 -19.62680115 -15.80374798 0 0 Z " fill="#EEF0EB" transform="translate(744.84765625,277.29296875)"/>
  <path d="M0 0 C7.01790757 4.50123989 11.901076 10.25922876 14.30859375 18.265625 C15.83765557 25.83098316 16.24627266 32.66342942 12.46875 39.59765625 C8.0631965 45.99247859 1.71800622 51.75795196 -6.09375 53.22265625 C-14.03794238 54.19258671 -20.71618949 52.17674429 -27.328125 47.71484375 C-33.24377939 42.93339377 -37.60400767 36.77670319 -39.09375 29.22265625 C-39.67534121 20.64418588 -38.03900969 14.16362556 -32.46875 7.47265625 C-23.74805732 -1.564577 -12.11934239 -5.52046317 0 0 Z " fill="#032429" transform="translate(444.09375,138.77734375)"/>
  <path d="M 589.293 108.336 C 592.697 108.484 594.717 108.902 597.457 110.965 C 601.12 115.695 599.963 122.612 599.293 128.336 C 597.98 135.518 595.625 142.432 593.293 149.336 C 594.248 149.191 595.203 149.047 596.187 148.898 C 618.926 145.634 618.926 145.634 626.293 150.336 C 627.73 153.523 627.73 153.523 628.293 156.336 C 618.877 162.3 608.006 163.974 597.293 166.336 C 586.163 168.826 575.276 171.523 564.485 175.232 C 554.964 178.504 545.791 182.064 535.653 181.617 C 535.653 175.677 536.293 168.456 536.293 162.336 C 538.169 162.109 540.046 161.882 541.98 161.648 C 553.873 159.789 567.23 155.214 575.414 145.93 C 581.935 136.927 584.257 128.198 586 117.371 C 586.143 116.49 586.286 115.61 586.433 114.703 C 586.552 113.91 586.671 113.117 586.794 112.3 C 587.293 110.336 587.293 110.336 589.293 108.336 Z" fill="#032112"/>
</svg>